#!OML:ASF F:\VICON\USERDATA\INSTALL\rory3\rory3.ASF
:FULLY-SPECIFIED
:DEGREES
1787
root -0.408372 17.4077 0.773212 10.2558 -6.28563 -4.84286
lowerback -7.77652 0.0505446 -2.87823
upperback -9.60637 0.129692 -0.267344
thorax -5.68577 0.227738 1.3343
lowerneck -16.6178 -10.6257 -12.7482
upperneck 35.3651 -18.4341 14.7839
head 19.2725 -7.5036 5.01491
rclavicle -2.78299e-015 -4.77083e-015
rhumerus 11.4277 -57.6051 -30.1146
rradius 91.5959
rwrist -41.1158
rhand -40.6118 -2.1584
rfingers 7.12502
rthumb -13.5575 -31.697
lclavicle -2.78299e-015 -4.77083e-015
lhumerus 269.762 -47.8063 -236.227
lradius 97.407
lwrist 4.70457
lhand -16.7125 4.99177
lfingers 7.12502
lthumb 9.51273 34.757
rfemur 0.221018 19.728 24.2613
rtibia 3.18055e-015
rfoot -6.84582 -12.8119
rtoes -14.1908
lfemur -6.31332 -21.5015 -12.511
ltibia 16.5888
lfoot -23.2538 20.777
ltoes -2.46691
1788
root -0.413482 17.4101 0.764703 10.2679 -6.26378 -4.7203
lowerback -7.72376 0.0946843 -2.93551
upperback -9.5775 0.183153 -0.435893
thorax -5.68621 0.251545 1.19164
lowerneck -16.8254 -10.6616 -12.8975
upperneck 35.4266 -18.1003 14.1104
head 19.1712 -7.45403 4.78354
rclavicle 8.74653e-015 -1.27222e-014
rhumerus 11.8077 -57.1145 -29.8935
rradius 91.6083
rwrist -40.8276
rhand -40.5607 -1.96192
rfingers 7.12502
rthumb -13.5082 -31.5038
lclavicle 8.74653e-015 -1.27222e-014
lhumerus 269.744 -47.9066 -236.407
lradius 97.5959
lwrist 4.79479
lhand -16.7208 5.05934
lfingers 7.12502
lthumb 9.50478 34.825
rfemur 0.160528 19.6877 24.1206
rtibia 6.36111e-015
rfoot -6.88325 -12.7609
rtoes -13.8445
lfemur -6.34094 -21.6001 -12.6178
ltibia 16.527
lfoot -23.1939 20.8361
ltoes -2.0359
1789
root -0.417689 17.4117 0.755026 10.3259 -6.26688 -4.54941
lowerback -7.72024 0.121226 -3.09183
upperback -9.52785 0.2208 -0.553508
thorax -5.6376 0.27477 1.1574
lowerneck -17.1636 -10.7149 -13.0242
upperneck 35.5092 -17.7363 13.3167
head 19.0918 -7.39711 4.4946
rclavicle 2.94201e-014 -2.22639e-014
rhumerus 12.2653 -56.4794 -29.7276
rradius 91.5727
rwrist -40.2804
rhand -40.7719 -1.89358
rfingers 7.12502
rthumb -13.7118 -31.4218
lclavicle 2.94201e-014 -2.22639e-014
lhumerus 269.851 -47.9656 -236.64
lradius 97.7334
lwrist 4.79983
lhand -16.5022 5.10816
lfingers 7.12502
lthumb 9.71563 34.8641
rfemur 0.0260239 19.6675 23.9017
rtibia -3.18055e-015
rfoot -6.9022 -12.7243
rtoes -13.7023
lfemur -6.4374 -21.7294 -12.7567
ltibia 16.4894
lfoot -23.1995 20.9435
ltoes -1.54157
1790
root -0.42289 17.414 0.742297 10.3907 -6.25157 -4.50891
lowerback -7.66168 0.171025 -3.11712
upperback -9.50085 0.283315 -0.645835
thorax -5.64358 0.304146 1.07662
lowerneck -17.496 -10.7679 -13.1375
upperneck 35.6614 -17.3754 12.4888
head 19.0541 -7.34645 4.1925
rclavicle 1.63003e-014 -6.36111e-015
rhumerus 12.5698 -55.7843 -29.4204
rradius 91.5714
rwrist -39.6589
rhand -40.5763 -2.27058
rfingers 7.12502
rthumb -13.5233 -31.8115
lclavicle 1.63003e-014 -6.36111e-015
lhumerus 269.998 -48.0699 -236.881
lradius 97.8443
lwrist 4.84999
lhand -16.2454 5.35317
lfingers 7.12502
lthumb 9.96345 35.0974
rfemur -0.110588 19.6541 23.8429
rtibia 2.06736e-014
rfoot -6.89233 -12.6794
rtoes -14.0198
lfemur -6.55518 -21.7014 -12.7157
ltibia 16.4399
lfoot -23.1041 20.9366
ltoes -1.46789
1791
root -0.427334 17.4161 0.730199 10.454 -6.18959 -4.57264
lowerback -7.61387 0.243027 -3.00265
upperback -9.50163 0.370986 -0.726098
thorax -5.67222 0.338422 0.930799
lowerneck -17.6776 -10.7851 -13.2638
upperneck 35.7731 -16.9711 11.6884
head 18.9579 -7.28876 3.9235
rclavicle 5.96354e-016 2.06736e-014
rhumerus 12.7328 -55.2871 -28.9675
rradius 91.7984
rwrist -39.641
rhand -40.2114 -2.19092
rfingers 7.12502
rthumb -13.1716 -31.7549
lclavicle 5.96354e-016 2.06736e-014
lhumerus 269.986 -48.2016 -236.959
lradius 97.927
lwrist 5.0157
lhand -16.2294 5.44478
lfingers 7.12502
lthumb 9.97888 35.1882
rfemur -0.218814 19.6126 23.9106
rtibia -4.77083e-015
rfoot -6.83515 -12.6499
rtoes -14.4406
lfemur -6.67693 -21.5956 -12.5601
ltibia 16.3986
lfoot -22.7863 21.0361
ltoes -2.90926
1792
root -0.430675 17.4175 0.720497 10.4574 -6.15053 -4.56513
lowerback -7.56841 0.316952 -2.94639
upperback -9.4666 0.463744 -0.820515
thorax -5.66133 0.377557 0.803084
lowerneck -17.8137 -10.7806 -13.3293
upperneck 35.7871 -16.5456 10.8976
head 18.7899 -7.21845 3.65444
rclavicle 1.68967e-014 -1.90833e-014
rhumerus 12.9089 -54.8339 -28.496
rradius 92.0144
rwrist -39.8371
rhand -40.1003 -1.42722
rfingers 7.12502
rthumb -13.0644 -30.9981
lclavicle 1.68967e-014 -1.90833e-014
lhumerus 269.895 -48.341 -236.989
lradius 98.0292
lwrist 5.21606
lhand -16.223 5.36829
lfingers 7.12502
lthumb 9.98507 35.1114
rfemur -0.258812 19.576 23.9168
rtibia -3.18055e-015
rfoot -6.72422 -12.6736
rtoes -14.8624
lfemur -6.73045 -21.5684 -12.524
ltibia 16.386
lfoot -22.68 21.0609
ltoes -3.46831
1793
root -0.432109 17.4179 0.711525 10.4206 -6.06644 -4.48764
lowerback -7.51421 0.373228 -2.9303
upperback -9.39373 0.534568 -0.931999
thorax -5.61378 0.406962 0.679759
lowerneck -18.0125 -10.7942 -13.3997
upperneck 35.797 -16.1545 10.1358
head 18.6583 -7.15743 3.3911
rclavicle 1.17283e-014 -1.74931e-014
rhumerus 13.1868 -54.3901 -28.1401
rradius 92.1688
rwrist -39.7306
rhand -39.3237 -1.04623
rfingers 7.12502
rthumb -12.3158 -30.6635
lclavicle 1.17283e-014 -1.74931e-014
lhumerus 269.846 -48.4895 -237.088
lradius 98.153
lwrist 5.26113
lhand -16.2433 5.33898
lfingers 7.12502
lthumb 9.96542 35.0831
rfemur -0.249905 19.4777 23.8528
rtibia -1.59028e-015
rfoot -6.75879 -12.659
rtoes -14.6242
lfemur -6.74434 -21.4955 -12.5744
ltibia 16.3547
lfoot -22.5906 20.9416
ltoes -3.41143
